# Wavefront OBJ file automatically generated by Tiled2Unity

# Vertices (Count = 126)
v -144 -96 0
v -192 -96 0
v -192 -48 0
v -144 -48 0
v -240 -96 0
v -240 -48 0
v -288 -96 0
v -288 -48 0
v -336 -96 0
v -336 -48 0
v -384 -96 0
v -384 -48 0
v -432 -96 0
v -432 -48 0
v -144 -192 0
v -192 -192 0
v -192 -144 0
v -144 -144 0
v -240 -192 0
v -240 -144 0
v -288 -192 0
v -288 -144 0
v -336 -192 0
v -336 -144 0
v -384 -192 0
v -384 -144 0
v -480 -192 0
v -528 -192 0
v -528 -144 0
v -480 -144 0
v -336 -240 0
v -384 -240 0
v -480 -240 0
v -528 -240 0
v -336 -288 0
v -384 -288 0
v -480 -288 0
v -528 -288 0
v -1008 -288 0
v -1056 -288 0
v -1056 -240 0
v -1008 -240 0
v -1104 -288 0
v -1104 -240 0
v -1152 -288 0
v -1152 -240 0
v -1200 -288 0
v -1200 -240 0
v -144 -336 0
v -192 -336 0
v -192 -288 0
v -144 -288 0
v -240 -336 0
v -240 -288 0
v -288 -336 0
v -288 -288 0
v -336 -336 0
v -384 -336 0
v -864 -336 0
v -912 -336 0
v -912 -288 0
v -864 -288 0
v -960 -336 0
v -960 -288 0
v -1008 -336 0
v -1056 -336 0
v -1104 -336 0
v -1152 -336 0
v -1200 -336 0
v -1248 -336 0
v -1248 -288 0
v -864 -384 0
v -912 -384 0
v -864 -432 0
v -912 -432 0
v -864 -480 0
v -912 -480 0
v -192 -528 0
v -240 -528 0
v -240 -480 0
v -192 -480 0
v -288 -528 0
v -288 -480 0
v -816 -528 0
v -864 -528 0
v -816 -480 0
v -912 -528 0
v -240 -576 0
v -288 -576 0
v -336 -576 0
v -336 -528 0
v -624 -576 0
v -672 -576 0
v -672 -528 0
v -624 -528 0
v -720 -576 0
v -720 -528 0
v -768 -576 0
v -768 -528 0
v -816 -576 0
v -864 -576 0
v -288 -624 0
v -336 -624 0
v -384 -624 0
v -384 -576 0
v -336 -672 0
v -384 -672 0
v -432 -672 0
v -432 -624 0
v -336 -720 0
v -384 -720 0
v -432 -720 0
v -240 -768 0
v -288 -768 0
v -288 -720 0
v -240 -720 0
v -336 -768 0
v -384 -768 0
v -96 -816 0
v -144 -816 0
v -144 -768 0
v -96 -768 0
v -192 -816 0
v -192 -768 0
v -240 -816 0
v -288 -816 0

# Texture cooridinates (Count = 4)
vt 0.0001220703 0.5001221
vt 0.4998779 0.5001221
vt 0.4998779 0.9998779
vt 0.0001220703 0.9998779

# Normal
vn 0 0 -1

# Groups (Count = 1)

g mesh_0001
f 1/1/1 2/2/1 3/3/1 4/4/1
f 2/1/1 5/2/1 6/3/1 3/4/1
f 5/1/1 7/2/1 8/3/1 6/4/1
f 7/1/1 9/2/1 10/3/1 8/4/1
f 9/1/1 11/2/1 12/3/1 10/4/1
f 11/1/1 13/2/1 14/3/1 12/4/1
f 15/1/1 16/2/1 17/3/1 18/4/1
f 16/1/1 19/2/1 20/3/1 17/4/1
f 19/1/1 21/2/1 22/3/1 20/4/1
f 21/1/1 23/2/1 24/3/1 22/4/1
f 23/1/1 25/2/1 26/3/1 24/4/1
f 27/1/1 28/2/1 29/3/1 30/4/1
f 31/1/1 32/2/1 25/3/1 23/4/1
f 33/1/1 34/2/1 28/3/1 27/4/1
f 35/1/1 36/2/1 32/3/1 31/4/1
f 37/1/1 38/2/1 34/3/1 33/4/1
f 39/1/1 40/2/1 41/3/1 42/4/1
f 40/1/1 43/2/1 44/3/1 41/4/1
f 43/1/1 45/2/1 46/3/1 44/4/1
f 45/1/1 47/2/1 48/3/1 46/4/1
f 49/1/1 50/2/1 51/3/1 52/4/1
f 50/1/1 53/2/1 54/3/1 51/4/1
f 53/1/1 55/2/1 56/3/1 54/4/1
f 55/1/1 57/2/1 35/3/1 56/4/1
f 57/1/1 58/2/1 36/3/1 35/4/1
f 59/1/1 60/2/1 61/3/1 62/4/1
f 60/1/1 63/2/1 64/3/1 61/4/1
f 63/1/1 65/2/1 39/3/1 64/4/1
f 65/1/1 66/2/1 40/3/1 39/4/1
f 66/1/1 67/2/1 43/3/1 40/4/1
f 67/1/1 68/2/1 45/3/1 43/4/1
f 68/1/1 69/2/1 47/3/1 45/4/1
f 69/1/1 70/2/1 71/3/1 47/4/1
f 72/1/1 73/2/1 60/3/1 59/4/1
f 74/1/1 75/2/1 73/3/1 72/4/1
f 76/1/1 77/2/1 75/3/1 74/4/1
f 78/1/1 79/2/1 80/3/1 81/4/1
f 79/1/1 82/2/1 83/3/1 80/4/1
f 84/1/1 85/2/1 76/3/1 86/4/1
f 85/1/1 87/2/1 77/3/1 76/4/1
f 88/1/1 89/2/1 82/3/1 79/4/1
f 89/1/1 90/2/1 91/3/1 82/4/1
f 92/1/1 93/2/1 94/3/1 95/4/1
f 93/1/1 96/2/1 97/3/1 94/4/1
f 96/1/1 98/2/1 99/3/1 97/4/1
f 98/1/1 100/2/1 84/3/1 99/4/1
f 100/1/1 101/2/1 85/3/1 84/4/1
f 102/1/1 103/2/1 90/3/1 89/4/1
f 103/1/1 104/2/1 105/3/1 90/4/1
f 106/1/1 107/2/1 104/3/1 103/4/1
f 107/1/1 108/2/1 109/3/1 104/4/1
f 110/1/1 111/2/1 107/3/1 106/4/1
f 111/1/1 112/2/1 108/3/1 107/4/1
f 113/1/1 114/2/1 115/3/1 116/4/1
f 114/1/1 117/2/1 110/3/1 115/4/1
f 117/1/1 118/2/1 111/3/1 110/4/1
f 119/1/1 120/2/1 121/3/1 122/4/1
f 120/1/1 123/2/1 124/3/1 121/4/1
f 123/1/1 125/2/1 113/3/1 124/4/1
f 125/1/1 126/2/1 114/3/1 113/4/1

